<?xml version="1.0" standalone="no"?><!DOCTYPE svg PUBLIC "-//W3C//DTD SVG 1.1//EN" "http://www.w3.org/Graphics/SVG/1.1/DTD/svg11.dtd"><svg t="1733203733540" class="icon" viewBox="0 0 1024 1024" version="1.1" xmlns="http://www.w3.org/2000/svg" p-id="16962" xmlns:xlink="http://www.w3.org/1999/xlink" width="200" height="200"><path d="M511.959152 1023.988329C229.171338 1023.964987-0.023342 794.723623 0 511.924139S229.276377-0.035013 512.040848 0s511.982494 229.264706 511.924139 512.040848a511.994165 511.994165 0 0 1-512.005835 511.947481z m253.17854-772.327015a433.576859 433.576859 0 0 0-396.288081 210.416075 941.171064 941.171064 0 0 0-108.166631 341.037668l-1.844014 10.959049h56.324143c18.591869-93.181094 65.952701-145.303685 140.752003-154.722164a295.275761 295.275761 0 0 0 225.016469-196.76103l-42.178917-28.220427 28.010349-28.1504a582.907031 582.907031 0 0 0 98.50306-154.628797z" fill="#A48149" p-id="16963"></path></svg>