<?xml version="1.0" standalone="no"?><!DOCTYPE svg PUBLIC "-//W3C//DTD SVG 1.1//EN" "http://www.w3.org/Graphics/SVG/1.1/DTD/svg11.dtd"><svg t="1733203761566" class="icon" viewBox="0 0 1024 1024" version="1.1" xmlns="http://www.w3.org/2000/svg" p-id="17105" xmlns:xlink="http://www.w3.org/1999/xlink" width="200" height="200"><path d="M1023.998976 936.532143c0 48.306079-39.15973 87.465809-87.465809 87.465809L87.468881 1023.997952C39.160754 1023.997952 0.001024 984.838222 0.001024 936.532143L0.001024 87.467857C0.001024 39.15973 39.160754 0 87.468881 0l849.064286 0C984.839246 0 1023.998976 39.15973 1023.998976 87.467857L1023.998976 936.532143zM253.401605 809.542061c12.462055-14.555107 22.831058-24.926158 31.156162-31.15821 10.369003-8.323055 26.96801-20.78511 49.850268-37.386165 22.831058-18.694107 40.503215-33.20211 52.96527-43.620265-2.093052-10.366955-7.303153-32.178112-15.579105-65.427325-24.92411 24.926158-54.036372 49.850268-87.236434 74.776426L284.557767 357.776692 135.006962 357.776692 135.006962 416.974014l87.238482 0 0 280.405455c2.045948 31.156162-6.230004 55.00917-24.92411 71.659377l43.618217 52.96527C242.985498 819.911064 247.169554 815.772064 253.401605 809.542061zM349.98714 239.382049c-14.555107-14.505955-38.459315-41.525165-71.659377-81.00643-22.88021-24.92411-38.457267-41.525165-46.733219-49.850268L181.742229 142.798562c14.505955 18.694107 38.410163 46.733219 71.659377 84.121432 18.694107 24.92411 32.178112 41.574317 40.503215 49.850268L349.98714 239.382049zM723.86108 812.657063c85.143382 4.139 132.902646-24.92411 143.316705-87.238482 12.464103-39.432113 19.718105-76.818278 21.809108-112.162592-2.091004 0-7.301105-1.02195-15.577057-3.115002-20.78511-8.275951-36.366263-14.505955-46.733219-18.694107 0 6.232052-1.071102 15.577057-3.115002 28.04116-6.232052 39.479217-11.440105 65.427325-15.577057 77.88938-6.232052 41.574317-37.388213 60.219272-93.470533 56.08232l-140.201704 0c-58.175372 4.139-85.194582-17.623005-81.00643-65.427325L493.305893 457.475181l342.717779 0L836.023672 133.451509 421.646517 133.451509l0 59.197322 348.94983 0 0 205.631077L430.991522 398.279907l0 308.446615c-2.093052 72.681327 39.432113 107.976488 124.626695 105.93054L723.86108 812.657063z" fill="#FF9900" p-id="17106"></path></svg>